<?xml version="1.0" encoding="UTF-8"?>
<svg xmlns="http://www.w3.org/2000/svg" viewBox="0 0 512 512" width="512" height="512">
  <!-- MyLife Calendar Icon -->
  <!-- Background -->
  <rect width="512" height="512" rx="64" fill="#1e40af"/>
  
  <!-- Calendar Grid -->
  <g fill="#ffffff">
    <!-- Top bar -->
    <rect x="64" y="64" width="384" height="64" rx="8"/>
    
    <!-- Calendar cells representing weeks -->
    <rect x="64" y="160" width="48" height="48" rx="4"/>
    <rect x="128" y="160" width="48" height="48" rx="4"/>
    <rect x="192" y="160" width="48" height="48" rx="4"/>
    <rect x="256" y="160" width="48" height="48" rx="4"/>
    <rect x="320" y="160" width="48" height="48" rx="4"/>
    <rect x="384" y="160" width="48" height="48" rx="4"/>
    
    <rect x="64" y="224" width="48" height="48" rx="4"/>
    <rect x="128" y="224" width="48" height="48" rx="4"/>
    <rect x="192" y="224" width="48" height="48" rx="4"/>
    <rect x="256" y="224" width="48" height="48" rx="4"/>
    <rect x="320" y="224" width="48" height="48" rx="4"/>
    <rect x="384" y="224" width="48" height="48" rx="4"/>
    
    <rect x="64" y="288" width="48" height="48" rx="4"/>
    <rect x="128" y="288" width="48" height="48" rx="4"/>
    <rect x="192" y="288" width="48" height="48" rx="4"/>
    <rect x="256" y="288" width="48" height="48" rx="4"/>
    <rect x="320" y="288" width="48" height="48" rx="4"/>
    <rect x="384" y="288" width="48" height="48" rx="4"/>
    
    <!-- Highlighted cells (representing tracked days) -->
    <rect x="64" y="352" width="48" height="48" rx="4" fill="#60a5fa"/>
    <rect x="128" y="352" width="48" height="48" rx="4" fill="#60a5fa"/>
    <rect x="192" y="352" width="48" height="48" rx="4" fill="#60a5fa"/>
  </g>
  
  <!-- Heart symbol in center representing life -->
  <path d="M256 396c-8 0-16-3-22-9l-60-60c-24-24-24-63 0-87 24-24 63-24 87 0l17 17 17-17c24-24 63-24 87 0 24 24 24 63 0 87l-60 60c-6 6-14 9-22 9z" fill="#ef4444" opacity="0.9"/>
</svg>